<svg width="1049" height="388" viewBox="0 0 1049 388" fill="none" xmlns="http://www.w3.org/2000/svg">
<path d="M1.00007 386C60.0001 367.726 84.5014 315.788 168.001 306.17C251.501 296.552 298.001 283.087 358.001 257.791C418.001 232.111 478.001 201.333 538.001 201.333C598.001 201.333 658.001 232.111 718.001 232.111C778.001 232.111 838.001 201.333 898.001 175.653C958.001 150.358 1018 129.198 1048 119.291M1.00007 386C60.0001 362.25 84.5014 294.75 168.001 282.25C251.501 269.75 298.001 252.25 358.001 219.375C418.001 186 478.001 146 538.001 146C598.001 146 658.001 186 718.001 186C778.001 186 838.001 146 898.001 112.625C958.001 79.75 1018 52.25 1048 39.375M1.00007 386C60.0001 359.677 84.5014 284.865 168.001 271.011C251.501 257.156 298.001 237.76 358.001 201.324C418.001 164.333 478.001 120 538.001 120C598.001 120 658.001 164.333 718.001 164.333C778.001 164.333 838.001 120 898.001 83.0094C958.001 46.5729 1018 16.0937 1048 1.82391M1.00007 386C60.0001 370.694 84.5014 327.195 168.001 319.139C251.501 311.083 298.001 299.806 358.001 278.62C418.001 257.111 478.001 231.333 538.001 231.333C598.001 231.333 658.001 257.111 718.001 257.111C778.001 257.111 838.001 231.333 898.001 209.825C958.001 188.639 1018 170.917 1048 162.619M1.00007 386C60.0001 373.927 84.5014 339.615 168.001 333.261C251.501 326.906 298.001 318.01 358.001 301.299C418.001 284.333 478.001 264 538.001 264C598.001 264 658.001 284.333 718.001 284.333C778.001 284.333 838.001 264 898.001 247.034C958.001 230.323 1018 216.344 1048 209.799M1.00007 386C60.0001 377.687 84.5014 354.063 168.001 349.688C251.501 345.313 298.001 339.188 358.001 327.681C418.001 316 478.001 302 538.001 302C598.001 302 658.001 316 718.001 316C778.001 316 838.001 302 898.001 290.319C958.001 278.812 1018 269.187 1048 264.681M1.00007 386C60.0001 381.58 84.5014 369.017 168.001 366.691C251.501 364.365 298.001 361.108 358.001 354.989C418.001 348.778 478.001 341.333 538.001 341.333C598.001 341.333 658.001 348.778 718.001 348.778C778.001 348.778 838.001 341.333 898.001 335.122C958.001 329.003 1018 323.885 1048 321.489M1.00007 386C59.7815 364.955 88.181 305.142 171.372 294.066C254.562 282.99 300.89 267.483 360.668 238.352C420.445 208.778 480.223 173.333 540.001 173.333C599.779 173.333 659.557 208.778 719.334 208.778C779.112 208.778 838.89 173.333 898.668 143.759C958.446 114.628 1018.22 90.2604 1048.11 78.8517" stroke="url(#paint0_linear_1_24)" stroke-width="3"/>
<defs>
<linearGradient id="paint0_linear_1_24" x1="190" y1="-214.5" x2="916.5" y2="512" gradientUnits="userSpaceOnUse">
<stop stop-color="#C61FB5" stop-opacity="0"/>
<stop offset="1" stop-color="#1F26C6"/>
</linearGradient>
</defs>
</svg>
